<?xml version="1.0" encoding="UTF-8"?>
<svg xmlns="http://www.w3.org/2000/svg" width="210" height="52" viewBox="0 0 210 52" fill="none">
  <path d="M0 2.86449C0 1.28248 1.28248 0 2.86449 0H4.89551C21.7244 0 34.2234 15.5866 30.5675 32.0136V32.0136C30.2929 33.2473 29.1984 34.125 27.9345 34.125H4C1.79086 34.125 0 32.3341 0 30.125V2.86449Z" fill="#F415AC"></path>
  <path d="M3.76923 48C3.76923 50.2091 5.5601 52 7.76923 52L30.9484 52C34.1038 52 36.0169 48.5172 34.3241 45.8542L26.8683 34.125L3.76923 34.125L3.76923 48Z" fill="#5D3FC9"></path>
  <path fill-rule="evenodd" clip-rule="evenodd" d="M26.9231 34.125L3.76923 34.125L3.76924 13.75C3.76924 11.5409 5.5601 9.75 7.76924 9.75H9.61255C10.9981 9.75 12.285 10.4671 13.0141 11.6453L26.9231 34.125Z" fill="#7513AA"></path>
  <path d="M46 11.0651H56.4458C57.8896 11.0651 59.2767 11.2085 60.6072 11.4953C61.966 11.7535 63.1691 12.2124 64.2165 12.8721C65.2639 13.5318 66.099 14.4209 66.7218 15.5395C67.3446 16.6581 67.656 18.0779 67.656 19.7988C67.656 22.0073 67.0474 23.8573 65.8301 25.3487C64.6412 26.8402 62.9285 27.7437 60.6921 28.0592L68.6751 41.5254H62.2208L55.2569 28.6185H51.3503V41.5254H46V11.0651ZM55.5117 23.972C56.276 23.972 57.0403 23.9433 57.8046 23.886C58.569 23.7999 59.2625 23.6278 59.8853 23.3697C60.5364 23.0829 61.0601 22.667 61.4564 22.122C61.8528 21.5484 62.0509 20.7596 62.0509 19.7558C62.0509 18.8666 61.8669 18.1496 61.4989 17.6046C61.1309 17.0596 60.6497 16.6581 60.0552 16.4C59.4607 16.1131 58.7954 15.9267 58.0594 15.8407C57.3517 15.7546 56.6582 15.7116 55.9788 15.7116H51.3503V23.972H55.5117Z" fill="black"></path>
  <path d="M74.6574 33.0068C74.8272 34.5557 75.4217 35.7603 76.4408 36.6208C77.4599 37.4812 78.6914 37.9115 80.1351 37.9115C81.409 37.9115 82.4705 37.6533 83.3198 37.137C84.1974 36.5921 84.9617 35.9181 85.6128 35.115L89.2646 37.9115C88.0756 39.4029 86.7451 40.4642 85.2731 41.0952C83.801 41.7262 82.2582 42.0417 80.6446 42.0417C79.116 42.0417 77.6722 41.7835 76.3134 41.2673C74.9546 40.751 73.7798 40.0196 72.789 39.0731C71.7982 38.1266 71.0056 36.9936 70.4111 35.6743C69.8449 34.3262 69.5619 32.8347 69.5619 31.1999C69.5619 29.565 69.8449 28.0879 70.4111 26.7685C71.0056 25.4204 71.7982 24.2732 72.789 23.3267C73.7798 22.3802 74.9546 21.6488 76.3134 21.1325C77.6722 20.6162 79.116 20.3581 80.6446 20.3581C82.0601 20.3581 83.3481 20.6162 84.5088 21.1325C85.6977 21.6201 86.7027 22.3371 87.5236 23.2836C88.3729 24.2301 89.024 25.4061 89.4769 26.8115C89.9581 28.1883 90.1988 29.7801 90.1988 31.5871V33.0068H74.6574ZM85.1032 29.1348C85.0749 27.6146 84.6078 26.4243 83.702 25.5639C82.7961 24.6747 81.5364 24.2301 79.9228 24.2301C78.3941 24.2301 77.1768 24.6747 76.271 25.5639C75.3934 26.453 74.8556 27.6433 74.6574 29.1348H85.1032Z" fill="black"></path>
  <path d="M93.3503 9H98.4458V41.5254H93.3503V9Z" fill="black"></path>
  <path d="M115.336 38.6859H115.209C114.473 39.8618 113.538 40.7223 112.406 41.2673C111.274 41.7835 110.028 42.0417 108.669 42.0417C107.735 42.0417 106.815 41.9126 105.909 41.6545C105.032 41.3963 104.239 41.0091 103.531 40.4928C102.852 39.9766 102.3 39.3312 101.875 38.5568C101.451 37.7824 101.238 36.8789 101.238 35.8464C101.238 34.7278 101.437 33.7813 101.833 33.0068C102.229 32.2037 102.753 31.5441 103.404 31.0278C104.083 30.4828 104.862 30.0526 105.739 29.7371C106.617 29.4216 107.523 29.1921 108.457 29.0487C109.42 28.8766 110.382 28.7762 111.345 28.7476C112.307 28.6902 113.213 28.6615 114.062 28.6615H115.336V28.1022C115.336 26.8115 114.897 25.8507 114.02 25.2197C113.142 24.56 112.024 24.2301 110.665 24.2301C109.589 24.2301 108.584 24.4309 107.65 24.8325C106.716 25.2053 105.909 25.7216 105.23 26.3813L102.555 23.6708C103.687 22.4949 105.003 21.6488 106.504 21.1325C108.032 20.6162 109.604 20.3581 111.217 20.3581C112.661 20.3581 113.878 20.5302 114.869 20.8743C115.86 21.1899 116.681 21.6057 117.332 22.122C117.983 22.6383 118.478 23.2406 118.818 23.929C119.186 24.5887 119.441 25.2627 119.582 25.9511C119.752 26.6394 119.851 27.3135 119.88 27.9731C119.908 28.6041 119.922 29.1634 119.922 29.651V41.5254H115.336V38.6859ZM115.039 32.2754H113.977C113.27 32.2754 112.477 32.3041 111.599 32.3615C110.722 32.4189 109.887 32.5623 109.094 32.7917C108.33 32.9925 107.679 33.308 107.141 33.7382C106.603 34.1398 106.334 34.7134 106.334 35.4591C106.334 35.9467 106.433 36.3626 106.631 36.7068C106.858 37.0223 107.141 37.2948 107.48 37.5243C107.82 37.7537 108.202 37.9258 108.627 38.0405C109.052 38.1266 109.476 38.1696 109.901 38.1696C111.656 38.1696 112.944 37.7537 113.765 36.9219C114.614 36.0615 115.039 34.8999 115.039 33.4371V32.2754Z" fill="black"></path>
  <path d="M121.328 25.2627V20.8743H125.532V14.8942H130.627V20.8743H136.232V25.2627H130.627V34.2975C130.627 35.3301 130.811 36.1475 131.179 36.7498C131.576 37.3522 132.34 37.6533 133.472 37.6533C133.925 37.6533 134.421 37.6103 134.958 37.5243C135.496 37.4095 135.921 37.2374 136.232 37.008V41.3533C135.695 41.6114 135.029 41.7835 134.237 41.8696C133.472 41.9843 132.793 42.0417 132.198 42.0417C130.84 42.0417 129.721 41.8839 128.844 41.5684C127.995 41.2816 127.315 40.837 126.806 40.2347C126.324 39.6037 125.985 38.8293 125.787 37.9115C125.617 36.9936 125.532 35.9324 125.532 34.7278V25.2627H121.328Z" fill="black"></path>
  <path d="M138.638 20.8743H143.733V41.5254H138.638V20.8743ZM137.916 13.8616C137.916 13.0298 138.213 12.3128 138.808 11.7105C139.43 11.0794 140.209 10.7639 141.143 10.7639C142.077 10.7639 142.856 11.0651 143.479 11.6674C144.13 12.2411 144.455 12.9725 144.455 13.8616C144.455 14.7507 144.13 15.4965 143.479 16.0988C142.856 16.6724 142.077 16.9593 141.143 16.9593C140.209 16.9593 139.43 16.6581 138.808 16.0558C138.213 15.4248 137.916 14.6934 137.916 13.8616Z" fill="black"></path>
  <path d="M146.866 31.1999C146.866 29.565 147.149 28.0879 147.715 26.7685C148.309 25.4204 149.102 24.2732 150.093 23.3267C151.084 22.3802 152.258 21.6488 153.617 21.1325C154.976 20.6162 156.42 20.3581 157.948 20.3581C159.477 20.3581 160.921 20.6162 162.28 21.1325C163.638 21.6488 164.813 22.3802 165.804 23.3267C166.795 24.2732 167.573 25.4204 168.139 26.7685C168.734 28.0879 169.031 29.565 169.031 31.1999C169.031 32.8347 168.734 34.3262 168.139 35.6743C167.573 36.9936 166.795 38.1266 165.804 39.0731C164.813 40.0196 163.638 40.751 162.28 41.2673C160.921 41.7835 159.477 42.0417 157.948 42.0417C156.42 42.0417 154.976 41.7835 153.617 41.2673C152.258 40.751 151.084 40.0196 150.093 39.0731C149.102 38.1266 148.309 36.9936 147.715 35.6743C147.149 34.3262 146.866 32.8347 146.866 31.1999ZM151.961 31.1999C151.961 32.003 152.089 32.7774 152.343 33.5231C152.626 34.2688 153.023 34.9285 153.532 35.5022C154.07 36.0758 154.707 36.5347 155.443 36.8789C156.179 37.2231 157.014 37.3952 157.948 37.3952C158.883 37.3952 159.718 37.2231 160.454 36.8789C161.19 36.5347 161.813 36.0758 162.322 35.5022C162.86 34.9285 163.256 34.2688 163.511 33.5231C163.794 32.7774 163.936 32.003 163.936 31.1999C163.936 30.3968 163.794 29.6224 163.511 28.8766C163.256 28.1309 162.86 27.4712 162.322 26.8976C161.813 26.3239 161.19 25.865 160.454 25.5208C159.718 25.1767 158.883 25.0046 157.948 25.0046C157.014 25.0046 156.179 25.1767 155.443 25.5208C154.707 25.865 154.07 26.3239 153.532 26.8976C153.023 27.4712 152.626 28.1309 152.343 28.8766C152.089 29.6224 151.961 30.3968 151.961 31.1999Z" fill="black"></path>
  <path d="M172.103 20.8743H176.944V24.1871H177.029C177.51 23.1546 178.246 22.2654 179.237 21.5197C180.228 20.7453 181.573 20.3581 183.271 20.3581C184.63 20.3581 185.776 20.5875 186.711 21.0464C187.673 21.5054 188.452 22.1077 189.046 22.8534C189.641 23.5991 190.065 24.4596 190.32 25.4348C190.575 26.41 190.702 27.4282 190.702 28.4894V41.5254H185.607V31.0708C185.607 30.4972 185.578 29.8662 185.522 29.1778C185.465 28.4607 185.309 27.8011 185.055 27.1987C184.828 26.5677 184.46 26.0515 183.951 25.6499C183.441 25.2197 182.747 25.0046 181.87 25.0046C181.021 25.0046 180.299 25.148 179.704 25.4348C179.138 25.7216 178.657 26.1088 178.261 26.5964C177.893 27.084 177.624 27.6433 177.454 28.2743C177.284 28.9053 177.199 29.565 177.199 30.2534V41.5254H172.103V20.8743Z" fill="black"></path>
  <path d="M205.658 26.5964C204.668 25.191 203.337 24.4883 201.667 24.4883C200.987 24.4883 200.322 24.6604 199.671 25.0046C199.02 25.3487 198.694 25.908 198.694 26.6825C198.694 27.3135 198.963 27.7724 199.501 28.0592C200.039 28.346 200.718 28.5898 201.539 28.7906C202.36 28.9914 203.238 29.2065 204.172 29.4359C205.135 29.6367 206.026 29.9665 206.847 30.4255C207.668 30.8557 208.348 31.458 208.885 32.2324C209.423 33.0068 209.692 34.0681 209.692 35.4161C209.692 36.6495 209.423 37.6963 208.885 38.5568C208.376 39.3886 207.697 40.0626 206.847 40.5789C206.026 41.0952 205.092 41.468 204.045 41.6975C202.997 41.9269 201.95 42.0417 200.903 42.0417C199.317 42.0417 197.859 41.8122 196.529 41.3533C195.198 40.8944 194.009 40.0626 192.962 38.858L196.359 35.6312C197.01 36.377 197.704 36.9936 198.44 37.4812C199.204 37.9401 200.124 38.1696 201.2 38.1696C201.568 38.1696 201.95 38.1266 202.346 38.0405C202.743 37.9545 203.111 37.8111 203.45 37.6103C203.79 37.4095 204.059 37.1657 204.257 36.8789C204.484 36.5634 204.597 36.2049 204.597 35.8033C204.597 35.0863 204.328 34.5557 203.79 34.2115C203.252 33.8673 202.573 33.5948 201.752 33.394C200.931 33.1646 200.039 32.9638 199.077 32.7917C198.142 32.5909 197.265 32.2898 196.444 31.8882C195.623 31.458 194.944 30.87 194.406 30.1243C193.868 29.3786 193.599 28.346 193.599 27.0266C193.599 25.8794 193.825 24.8898 194.278 24.0581C194.76 23.1976 195.382 22.4949 196.147 21.9499C196.911 21.405 197.789 21.0034 198.779 20.7453C199.77 20.4871 200.775 20.3581 201.794 20.3581C203.153 20.3581 204.498 20.6019 205.828 21.0895C207.159 21.5484 208.234 22.3515 209.055 23.4988L205.658 26.5964Z" fill="black"></path>
</svg>
